<?xml version="1.0" encoding="UTF-8"?><svg xmlns="http://www.w3.org/2000/svg" xmlns:xlink="http://www.w3.org/1999/xlink" fill-opacity="1" color-rendering="auto" color-interpolation="auto" text-rendering="auto" stroke="black" stroke-linecap="square" width="786" stroke-miterlimit="10" shape-rendering="auto" stroke-opacity="1" fill="black" stroke-dasharray="none" font-weight="normal" stroke-width="1" height="1089" font-family="'Dialog'" font-style="normal" stroke-linejoin="miter" font-size="12px" stroke-dashoffset="0" image-rendering="auto">
  <!--Generated by ySVG 2.5-->
  <defs id="genericDefs"/>
  <g>
    <defs id="defs1">
      <linearGradient x1="-2863.7593" gradientUnits="userSpaceOnUse" x2="-2680.7593" y1="-303.7351" y2="-215.0952" id="linearGradient1" spreadMethod="reflect">
        <stop stop-opacity="1" stop-color="rgb(232,238,247)" offset="0%"/>
        <stop stop-opacity="1" stop-color="rgb(183,201,227)" offset="100%"/>
      </linearGradient>
      <linearGradient x1="-2863.7593" gradientUnits="userSpaceOnUse" x2="-2680.7593" y1="-171.8147" y2="-131.8147" id="linearGradient2" spreadMethod="reflect">
        <stop stop-opacity="1" stop-color="rgb(232,238,247)" offset="0%"/>
        <stop stop-opacity="1" stop-color="rgb(183,201,227)" offset="100%"/>
      </linearGradient>
      <linearGradient x1="-2812.2593" gradientUnits="userSpaceOnUse" x2="-2732.2593" y1="-690.9363" y2="-650.9363" id="linearGradient3" spreadMethod="reflect">
        <stop stop-opacity="1" stop-color="rgb(232,238,247)" offset="0%"/>
        <stop stop-opacity="1" stop-color="rgb(183,201,227)" offset="100%"/>
      </linearGradient>
      <linearGradient x1="-2879.2546" gradientUnits="userSpaceOnUse" x2="-2665.2642" y1="-620.9363" y2="-580.9363" id="linearGradient4" spreadMethod="reflect">
        <stop stop-opacity="1" stop-color="rgb(232,238,247)" offset="0%"/>
        <stop stop-opacity="1" stop-color="rgb(183,201,227)" offset="100%"/>
      </linearGradient>
      <linearGradient x1="-2823.7571" gradientUnits="userSpaceOnUse" x2="-2720.7617" y1="-456.1356" y2="-416.1356" id="linearGradient5" spreadMethod="reflect">
        <stop stop-opacity="1" stop-color="rgb(232,238,247)" offset="0%"/>
        <stop stop-opacity="1" stop-color="rgb(183,201,227)" offset="100%"/>
      </linearGradient>
      <linearGradient x1="-2892.6594" gradientUnits="userSpaceOnUse" x2="-2651.8594" y1="-538.5359" y2="-498.5359" id="linearGradient6" spreadMethod="reflect">
        <stop stop-opacity="1" stop-color="rgb(232,238,247)" offset="0%"/>
        <stop stop-opacity="1" stop-color="rgb(183,201,227)" offset="100%"/>
      </linearGradient>
      <linearGradient x1="-2878.1794" gradientUnits="userSpaceOnUse" x2="-2666.3394" y1="-373.7351" y2="-333.7351" id="linearGradient7" spreadMethod="reflect">
        <stop stop-opacity="1" stop-color="rgb(232,238,247)" offset="0%"/>
        <stop stop-opacity="1" stop-color="rgb(183,201,227)" offset="100%"/>
      </linearGradient>
      <linearGradient x1="-2859.3569" gradientUnits="userSpaceOnUse" x2="-2685.1619" y1="-88.2147" y2="-11.0947" id="linearGradient8" spreadMethod="reflect">
        <stop stop-opacity="1" stop-color="rgb(232,238,247)" offset="0%"/>
        <stop stop-opacity="1" stop-color="rgb(183,201,227)" offset="100%"/>
      </linearGradient>
      <linearGradient x1="-3257.7441" gradientUnits="userSpaceOnUse" x2="-3106.5442" y1="-197.518" y2="-157.518" id="linearGradient9" spreadMethod="reflect">
        <stop stop-opacity="1" stop-color="rgb(232,238,247)" offset="0%"/>
        <stop stop-opacity="1" stop-color="rgb(183,201,227)" offset="100%"/>
      </linearGradient>
      <linearGradient x1="-2609.7805" gradientUnits="userSpaceOnUse" x2="-2502.0806" y1="-171.8147" y2="-131.8147" id="linearGradient10" spreadMethod="reflect">
        <stop stop-opacity="1" stop-color="rgb(232,238,247)" offset="0%"/>
        <stop stop-opacity="1" stop-color="rgb(183,201,227)" offset="100%"/>
      </linearGradient>
      <linearGradient x1="-2859.3569" gradientUnits="userSpaceOnUse" x2="-2685.1619" y1="62.0653" y2="139.1853" id="linearGradient11" spreadMethod="reflect">
        <stop stop-opacity="1" stop-color="rgb(232,238,247)" offset="0%"/>
        <stop stop-opacity="1" stop-color="rgb(183,201,227)" offset="100%"/>
      </linearGradient>
      <linearGradient x1="-2857.6995" gradientUnits="userSpaceOnUse" x2="-2686.8193" y1="212.3453" y2="284.3452" id="linearGradient12" spreadMethod="reflect">
        <stop stop-opacity="1" stop-color="rgb(232,238,247)" offset="0%"/>
        <stop stop-opacity="1" stop-color="rgb(183,201,227)" offset="100%"/>
      </linearGradient>
      <linearGradient x1="-3013.1616" gradientUnits="userSpaceOnUse" x2="-2911.7317" y1="-69.6547" y2="-29.6547" id="linearGradient13" spreadMethod="reflect">
        <stop stop-opacity="1" stop-color="rgb(232,238,247)" offset="0%"/>
        <stop stop-opacity="1" stop-color="rgb(183,201,227)" offset="100%"/>
      </linearGradient>
      <linearGradient x1="-2847.8594" gradientUnits="userSpaceOnUse" x2="-2696.6594" y1="327.3452" y2="367.3452" id="linearGradient14" spreadMethod="reflect">
        <stop stop-opacity="1" stop-color="rgb(232,238,247)" offset="0%"/>
        <stop stop-opacity="1" stop-color="rgb(183,201,227)" offset="100%"/>
      </linearGradient>
      <linearGradient x1="-3019.7268" gradientUnits="userSpaceOnUse" x2="-2905.1667" y1="74.2253" y2="127.0253" id="linearGradient15" spreadMethod="reflect">
        <stop stop-opacity="1" stop-color="rgb(232,238,247)" offset="0%"/>
        <stop stop-opacity="1" stop-color="rgb(183,201,227)" offset="100%"/>
      </linearGradient>
      <linearGradient x1="-3222.144" gradientUnits="userSpaceOnUse" x2="-3142.144" y1="-110.8109" y2="-70.8109" id="linearGradient16" spreadMethod="reflect">
        <stop stop-opacity="1" stop-color="rgb(232,238,247)" offset="0%"/>
        <stop stop-opacity="1" stop-color="rgb(183,201,227)" offset="100%"/>
      </linearGradient>
      <clipPath clipPathUnits="userSpaceOnUse" id="clipPath1">
        <path d="M0 0 L786 0 L786 1089 L0 1089 L0 0 Z"/>
      </clipPath>
      <clipPath clipPathUnits="userSpaceOnUse" id="clipPath2">
        <path d="M-3273 -706 L-2487 -706 L-2487 383 L-3273 383 L-3273 -706 Z"/>
      </clipPath>
    </defs>
    <g fill="url(#linearGradient1)" text-rendering="geometricPrecision" shape-rendering="geometricPrecision" transform="matrix(1,0,0,1,3273,706)" stroke="url(#linearGradient1)">
      <path d="M-2772.2593 -303.7351 L-2680.7593 -259.4152 L-2772.2593 -215.0952 L-2863.7593 -259.4152 Z" stroke="none" clip-path="url(#clipPath2)"/>
    </g>
    <g text-rendering="geometricPrecision" stroke-miterlimit="1.45" stroke-width="2" shape-rendering="geometricPrecision" transform="matrix(1,0,0,1,3273,706)" stroke-linecap="butt">
      <path fill="none" d="M-2772.2593 -303.7351 L-2680.7593 -259.4152 L-2772.2593 -215.0952 L-2863.7593 -259.4152 Z" clip-path="url(#clipPath2)"/>
      <text x="-2831.8813" y="-262.2452" clip-path="url(#clipPath2)" font-family="'Droid Sans'" stroke="none" stroke-width="1" xml:space="preserve">¿Quedan números en </text>
      <text x="-2822.8931" y="-248.2765" clip-path="url(#clipPath2)" font-family="'Droid Sans'" stroke="none" stroke-width="1" xml:space="preserve">la lista secuencias?</text>
    </g>
    <g fill="url(#linearGradient2)" text-rendering="geometricPrecision" shape-rendering="geometricPrecision" transform="matrix(1,0,0,1,3273,706)" stroke="url(#linearGradient2)">
      <path d="M-2863.7593 -171.8147 L-2680.7593 -171.8147 L-2680.7593 -131.8147 L-2863.7593 -131.8147 Z" stroke="none" clip-path="url(#clipPath2)"/>
    </g>
    <g text-rendering="geometricPrecision" stroke-miterlimit="1.45" stroke-width="2" shape-rendering="geometricPrecision" transform="matrix(1,0,0,1,3273,706)" stroke-linecap="butt">
      <path fill="none" d="M-2863.7593 -171.8147 L-2680.7593 -171.8147 L-2680.7593 -131.8147 L-2863.7593 -131.8147 Z" clip-path="url(#clipPath2)"/>
      <text x="-2846.855" y="-147.6604" clip-path="url(#clipPath2)" font-family="'Droid Sans'" stroke="none" stroke-width="1" xml:space="preserve">Para cada dígito en número</text>
    </g>
    <g fill="url(#linearGradient3)" text-rendering="geometricPrecision" shape-rendering="geometricPrecision" transform="matrix(1,0,0,1,3273,706)" stroke="url(#linearGradient3)">
      <ellipse rx="40" ry="20" clip-path="url(#clipPath2)" cx="-2772.2594" cy="-670.9363" stroke="none"/>
    </g>
    <g text-rendering="geometricPrecision" stroke-miterlimit="1.45" stroke-width="2" shape-rendering="geometricPrecision" transform="matrix(1,0,0,1,3273,706)" stroke-linecap="butt">
      <ellipse rx="40" fill="none" ry="20" clip-path="url(#clipPath2)" cx="-2772.2594" cy="-670.9363"/>
      <text x="-2787.1714" y="-666.782" clip-path="url(#clipPath2)" font-family="'Droid Sans'" stroke="none" stroke-width="1" xml:space="preserve">Inicio</text>
    </g>
    <g fill="url(#linearGradient4)" text-rendering="geometricPrecision" shape-rendering="geometricPrecision" transform="matrix(1,0,0,1,3273,706)" stroke="url(#linearGradient4)">
      <rect x="-2879.2546" width="213.9904" height="40" y="-620.9363" clip-path="url(#clipPath2)" stroke="none"/>
    </g>
    <g text-rendering="geometricPrecision" stroke-miterlimit="1.45" stroke-width="2" shape-rendering="geometricPrecision" transform="matrix(1,0,0,1,3273,706)" stroke-linecap="butt">
      <rect fill="none" x="-2879.2546" width="213.9904" height="40" y="-620.9363" clip-path="url(#clipPath2)"/>
      <path fill="none" d="M-2869.2546 -620.9363 L-2869.2546 -580.9363 M-2675.2642 -620.9363 L-2675.2642 -580.9363 M-2869.2546 -620.9363 Z" clip-path="url(#clipPath2)"/>
      <text x="-2850.0425" y="-596.782" clip-path="url(#clipPath2)" font-family="'Droid Sans'" stroke="none" stroke-width="1" xml:space="preserve">Carga de datos -&gt; secuencias</text>
    </g>
    <g fill="url(#linearGradient5)" text-rendering="geometricPrecision" shape-rendering="geometricPrecision" transform="matrix(1,0,0,1,3273,706)" stroke="url(#linearGradient5)">
      <path d="M-2823.7571 -456.1356 L-2720.7617 -456.1356 L-2720.7617 -416.1356 L-2823.7571 -416.1356 Z" stroke="none" clip-path="url(#clipPath2)"/>
    </g>
    <g text-rendering="geometricPrecision" stroke-miterlimit="1.45" stroke-width="2" shape-rendering="geometricPrecision" transform="matrix(1,0,0,1,3273,706)" stroke-linecap="butt">
      <path fill="none" d="M-2823.7571 -456.1356 L-2720.7617 -456.1356 L-2720.7617 -416.1356 L-2823.7571 -416.1356 Z" clip-path="url(#clipPath2)"/>
      <text x="-2813.5239" y="-431.9813" clip-path="url(#clipPath2)" font-family="'Droid Sans'" stroke="none" stroke-width="1" xml:space="preserve">contraseña = ""</text>
    </g>
    <g fill="url(#linearGradient6)" text-rendering="geometricPrecision" shape-rendering="geometricPrecision" transform="matrix(1,0,0,1,3273,706)" stroke="url(#linearGradient6)">
      <rect x="-2892.6594" width="240.8" height="40" y="-538.5359" clip-path="url(#clipPath2)" stroke="none"/>
    </g>
    <g text-rendering="geometricPrecision" stroke-miterlimit="1.45" stroke-width="2" shape-rendering="geometricPrecision" transform="matrix(1,0,0,1,3273,706)" stroke-linecap="butt">
      <rect fill="none" x="-2892.6594" width="240.8" height="40" y="-538.5359" clip-path="url(#clipPath2)"/>
      <path fill="none" d="M-2882.6594 -538.5359 L-2882.6594 -498.5359 M-2661.8594 -538.5359 L-2661.8594 -498.5359 M-2882.6594 -538.5359 Z" clip-path="url(#clipPath2)"/>
      <text x="-2865.3267" y="-514.3817" clip-path="url(#clipPath2)" font-family="'Droid Sans'" stroke="none" stroke-width="1" xml:space="preserve">Eliminar secuencias repetidas (set)</text>
    </g>
    <g fill="url(#linearGradient7)" text-rendering="geometricPrecision" shape-rendering="geometricPrecision" transform="matrix(1,0,0,1,3273,706)" stroke="url(#linearGradient7)">
      <path d="M-2878.1794 -373.7351 L-2666.3394 -373.7351 L-2666.3394 -333.7351 L-2878.1794 -333.7351 Z" stroke="none" clip-path="url(#clipPath2)"/>
    </g>
    <g text-rendering="geometricPrecision" stroke-miterlimit="1.45" stroke-width="2" shape-rendering="geometricPrecision" transform="matrix(1,0,0,1,3273,706)" stroke-linecap="butt">
      <path fill="none" d="M-2878.1794 -373.7351 L-2666.3394 -373.7351 L-2666.3394 -333.7351 L-2878.1794 -333.7351 Z" clip-path="url(#clipPath2)"/>
      <text x="-2860.8237" y="-349.5808" clip-path="url(#clipPath2)" font-family="'Droid Sans'" stroke="none" stroke-width="1" xml:space="preserve">Para cada número en secuencias</text>
    </g>
    <g fill="url(#linearGradient8)" text-rendering="geometricPrecision" shape-rendering="geometricPrecision" transform="matrix(1,0,0,1,3273,706)" stroke="url(#linearGradient8)">
      <path d="M-2772.2593 -88.2147 L-2685.1619 -49.6547 L-2772.2593 -11.0947 L-2859.3569 -49.6547 Z" stroke="none" clip-path="url(#clipPath2)"/>
    </g>
    <g text-rendering="geometricPrecision" stroke-miterlimit="1.45" stroke-width="2" shape-rendering="geometricPrecision" transform="matrix(1,0,0,1,3273,706)" stroke-linecap="butt">
      <path fill="none" d="M-2772.2593 -88.2147 L-2685.1619 -49.6547 L-2772.2593 -11.0947 L-2859.3569 -49.6547 Z" clip-path="url(#clipPath2)"/>
      <text x="-2817.2944" y="-52.4848" clip-path="url(#clipPath2)" font-family="'Droid Sans'" stroke="none" stroke-width="1" xml:space="preserve">¿Quedan dígitos </text>
      <text x="-2810.9487" y="-38.5161" clip-path="url(#clipPath2)" font-family="'Droid Sans'" stroke="none" stroke-width="1" xml:space="preserve">en el número?</text>
    </g>
    <g fill="url(#linearGradient9)" text-rendering="geometricPrecision" shape-rendering="geometricPrecision" transform="matrix(1,0,0,1,3273,706)" stroke="url(#linearGradient9)">
      <path d="M-3257.7441 -177.518 Q-3252.7441 -192.518 -3237.7441 -197.518 L-3111.5442 -197.518 Q-3101.5442 -177.518 -3111.5442 -157.518 L-3237.7441 -157.518 Q-3252.7441 -162.518 -3257.7441 -177.518" stroke="none" clip-path="url(#clipPath2)"/>
    </g>
    <g text-rendering="geometricPrecision" stroke-miterlimit="1.45" stroke-width="2" shape-rendering="geometricPrecision" transform="matrix(1,0,0,1,3273,706)" stroke-linecap="butt">
      <path fill="none" d="M-3257.7441 -177.518 Q-3252.7441 -192.518 -3237.7441 -197.518 L-3111.5442 -197.518 Q-3101.5442 -177.518 -3111.5442 -157.518 L-3237.7441 -157.518 Q-3252.7441 -162.518 -3257.7441 -177.518" clip-path="url(#clipPath2)"/>
      <text x="-3235.1187" y="-173.3637" clip-path="url(#clipPath2)" font-family="'Droid Sans'" stroke="none" stroke-width="1" xml:space="preserve">Mostrar contraseña</text>
    </g>
    <g fill="url(#linearGradient10)" text-rendering="geometricPrecision" shape-rendering="geometricPrecision" transform="matrix(1,0,0,1,3273,706)" stroke="url(#linearGradient10)">
      <path d="M-2609.7805 -171.8147 L-2502.0806 -171.8147 L-2502.0806 -131.8147 L-2609.7805 -131.8147 Z" stroke="none" clip-path="url(#clipPath2)"/>
    </g>
    <g text-rendering="geometricPrecision" stroke-miterlimit="1.45" stroke-width="2" shape-rendering="geometricPrecision" transform="matrix(1,0,0,1,3273,706)" stroke-linecap="butt">
      <path fill="none" d="M-2609.7805 -171.8147 L-2502.0806 -171.8147 L-2502.0806 -131.8147 L-2609.7805 -131.8147 Z" clip-path="url(#clipPath2)"/>
      <text x="-2585.2478" y="-154.6448" clip-path="url(#clipPath2)" font-family="'Droid Sans'" stroke="none" stroke-width="1" xml:space="preserve">Avanzar al </text>
      <text x="-2603.4412" y="-140.6761" clip-path="url(#clipPath2)" font-family="'Droid Sans'" stroke="none" stroke-width="1" xml:space="preserve">siguiente número</text>
    </g>
    <g fill="url(#linearGradient11)" text-rendering="geometricPrecision" shape-rendering="geometricPrecision" transform="matrix(1,0,0,1,3273,706)" stroke="url(#linearGradient11)">
      <path d="M-2772.2593 62.0653 L-2685.1619 100.6253 L-2772.2593 139.1853 L-2859.3569 100.6253 Z" stroke="none" clip-path="url(#clipPath2)"/>
    </g>
    <g text-rendering="geometricPrecision" stroke-miterlimit="1.45" stroke-width="2" shape-rendering="geometricPrecision" transform="matrix(1,0,0,1,3273,706)" stroke-linecap="butt">
      <path fill="none" d="M-2772.2593 62.0653 L-2685.1619 100.6253 L-2772.2593 139.1853 L-2859.3569 100.6253 Z" clip-path="url(#clipPath2)"/>
      <text x="-2810.5708" y="90.8108" clip-path="url(#clipPath2)" font-family="'Droid Sans'" stroke="none" stroke-width="1" xml:space="preserve">¿El dígito está </text>
      <text x="-2812.2319" y="104.7795" clip-path="url(#clipPath2)" font-family="'Droid Sans'" stroke="none" stroke-width="1" xml:space="preserve">presente en la </text>
      <text x="-2804.8345" y="118.7483" clip-path="url(#clipPath2)" font-family="'Droid Sans'" stroke="none" stroke-width="1" xml:space="preserve">contraseña?</text>
    </g>
    <g fill="url(#linearGradient12)" text-rendering="geometricPrecision" shape-rendering="geometricPrecision" transform="matrix(1,0,0,1,3273,706)" stroke="url(#linearGradient12)">
      <path d="M-2772.2593 212.3453 L-2686.8193 248.3453 L-2772.2593 284.3452 L-2857.6995 248.3453 Z" stroke="none" clip-path="url(#clipPath2)"/>
    </g>
    <g text-rendering="geometricPrecision" stroke-miterlimit="1.45" stroke-width="2" shape-rendering="geometricPrecision" transform="matrix(1,0,0,1,3273,706)" stroke-linecap="butt">
      <path fill="none" d="M-2772.2593 212.3453 L-2686.8193 248.3453 L-2772.2593 284.3452 L-2857.6995 248.3453 Z" clip-path="url(#clipPath2)"/>
      <text x="-2816.4653" y="245.5152" clip-path="url(#clipPath2)" font-family="'Droid Sans'" stroke="none" stroke-width="1" xml:space="preserve">¿La posición del </text>
      <text x="-2821.3081" y="259.4839" clip-path="url(#clipPath2)" font-family="'Droid Sans'" stroke="none" stroke-width="1" xml:space="preserve">dígito es correcta?</text>
    </g>
    <g fill="url(#linearGradient13)" text-rendering="geometricPrecision" shape-rendering="geometricPrecision" transform="matrix(1,0,0,1,3273,706)" stroke="url(#linearGradient13)">
      <path d="M-3013.1616 -69.6547 L-2911.7317 -69.6547 L-2911.7317 -29.6547 L-3013.1616 -29.6547 Z" stroke="none" clip-path="url(#clipPath2)"/>
    </g>
    <g text-rendering="geometricPrecision" stroke-miterlimit="1.45" stroke-width="2" shape-rendering="geometricPrecision" transform="matrix(1,0,0,1,3273,706)" stroke-linecap="butt">
      <path fill="none" d="M-3013.1616 -69.6547 L-2911.7317 -69.6547 L-2911.7317 -29.6547 L-3013.1616 -29.6547 Z" clip-path="url(#clipPath2)"/>
      <text x="-2991.7642" y="-52.4848" clip-path="url(#clipPath2)" font-family="'Droid Sans'" stroke="none" stroke-width="1" xml:space="preserve">Avanzar al </text>
      <text x="-3003.6733" y="-38.5161" clip-path="url(#clipPath2)" font-family="'Droid Sans'" stroke="none" stroke-width="1" xml:space="preserve">siguiente dígito</text>
    </g>
    <g fill="url(#linearGradient14)" text-rendering="geometricPrecision" shape-rendering="geometricPrecision" transform="matrix(1,0,0,1,3273,706)" stroke="url(#linearGradient14)">
      <rect x="-2847.8594" width="151.2" height="40" y="327.3453" clip-path="url(#clipPath2)" stroke="none"/>
    </g>
    <g text-rendering="geometricPrecision" stroke-miterlimit="1.45" stroke-width="2" shape-rendering="geometricPrecision" transform="matrix(1,0,0,1,3273,706)" stroke-linecap="butt">
      <rect fill="none" x="-2847.8594" width="151.2" height="40" y="327.3453" clip-path="url(#clipPath2)"/>
      <path fill="none" d="M-2837.8594 327.3452 L-2837.8594 367.3452 M-2706.6594 327.3452 L-2706.6594 367.3452 M-2837.8594 327.3452 Z" clip-path="url(#clipPath2)"/>
      <text x="-2823.936" y="351.4995" clip-path="url(#clipPath2)" font-family="'Droid Sans'" stroke="none" stroke-width="1" xml:space="preserve">Reposicionar dígito</text>
    </g>
    <g fill="url(#linearGradient15)" text-rendering="geometricPrecision" shape-rendering="geometricPrecision" transform="matrix(1,0,0,1,3273,706)" stroke="url(#linearGradient15)">
      <rect x="-3019.7267" width="114.56" height="52.8" y="74.2253" clip-path="url(#clipPath2)" stroke="none"/>
    </g>
    <g text-rendering="geometricPrecision" stroke-miterlimit="1.45" stroke-width="2" shape-rendering="geometricPrecision" transform="matrix(1,0,0,1,3273,706)" stroke-linecap="butt">
      <rect fill="none" x="-3019.7267" width="114.56" height="52.8" y="74.2253" clip-path="url(#clipPath2)"/>
      <path fill="none" d="M-3009.7268 74.2253 L-3009.7268 127.0253 M-2915.1667 74.2253 L-2915.1667 127.0253 M-3009.7268 74.2253 Z" clip-path="url(#clipPath2)"/>
      <text x="-2998.6167" y="90.8108" clip-path="url(#clipPath2)" font-family="'Droid Sans'" stroke="none" stroke-width="1" xml:space="preserve">Añadir dígito </text>
      <text x="-2996.6802" y="104.7795" clip-path="url(#clipPath2)" font-family="'Droid Sans'" stroke="none" stroke-width="1" xml:space="preserve">al final de la </text>
      <text x="-2992.4673" y="118.7483" clip-path="url(#clipPath2)" font-family="'Droid Sans'" stroke="none" stroke-width="1" xml:space="preserve">contraseña</text>
    </g>
    <g fill="url(#linearGradient16)" text-rendering="geometricPrecision" shape-rendering="geometricPrecision" transform="matrix(1,0,0,1,3273,706)" stroke="url(#linearGradient16)">
      <rect x="-3222.1441" y="-110.8109" clip-path="url(#clipPath2)" width="80" rx="20" ry="20" height="40" stroke="none"/>
    </g>
    <g text-rendering="geometricPrecision" stroke-miterlimit="1.45" stroke-width="2" shape-rendering="geometricPrecision" transform="matrix(1,0,0,1,3273,706)" stroke-linecap="butt">
      <rect x="-3222.1441" y="-110.8109" clip-path="url(#clipPath2)" fill="none" width="80" rx="20" ry="20" height="40"/>
      <text x="-3190.1772" y="-86.6566" clip-path="url(#clipPath2)" font-family="'Droid Sans'" stroke="none" stroke-width="1" xml:space="preserve">Fin</text>
    </g>
    <g text-rendering="geometricPrecision" stroke-miterlimit="1.45" stroke-width="2" shape-rendering="geometricPrecision" transform="matrix(1,0,0,1,3273,706)" stroke-linecap="butt">
      <path fill="none" d="M-2772.2593 -215.0983 L-2772.2593 -180.8072" clip-path="url(#clipPath2)"/>
    </g>
    <g text-rendering="geometricPrecision" stroke-miterlimit="1.45" stroke-width="2" shape-rendering="geometricPrecision" transform="matrix(1,0,0,1,3273,706)" stroke-linecap="butt">
      <path d="M-2772.2593 -171.8072 L-2766.6343 -185.3072 L-2772.2593 -181.9322 L-2777.8843 -185.3072 Z" stroke="none" clip-path="url(#clipPath2)"/>
      <text x="-2807.7378" y="-196.9565" clip-path="url(#clipPath2)" font-family="'Droid Sans'" stroke="none" font-weight="bold" stroke-width="1" xml:space="preserve">SÍ</text>
      <path fill="none" d="M-2772.2593 -650.9412 L-2772.2593 -629.909" clip-path="url(#clipPath2)"/>
      <path d="M-2772.2593 -620.909 L-2766.6343 -634.409 L-2772.2593 -631.034 L-2777.8843 -634.409 Z" clip-path="url(#clipPath2)" stroke="none"/>
      <path fill="none" d="M-2772.2593 -580.9398 L-2772.2593 -547.5551" clip-path="url(#clipPath2)"/>
      <path d="M-2772.2593 -538.5551 L-2766.6343 -552.0551 L-2772.2593 -548.6801 L-2777.8843 -552.0551 Z" clip-path="url(#clipPath2)" stroke="none"/>
      <path fill="none" d="M-2772.2593 -498.5394 L-2772.2593 -465.1548" clip-path="url(#clipPath2)"/>
      <path d="M-2772.2593 -456.1548 L-2766.6343 -469.6548 L-2772.2593 -466.2798 L-2777.8843 -469.6548 Z" clip-path="url(#clipPath2)" stroke="none"/>
      <path fill="none" d="M-2772.2593 -416.139 L-2772.2593 -382.7543" clip-path="url(#clipPath2)"/>
      <path d="M-2772.2593 -373.7543 L-2766.6343 -387.2543 L-2772.2593 -383.8793 L-2777.8843 -387.2543 Z" clip-path="url(#clipPath2)" stroke="none"/>
      <path fill="none" d="M-2772.2593 -333.7014 L-2772.2593 -312.7039" clip-path="url(#clipPath2)"/>
      <path d="M-2772.2593 -303.7039 L-2766.6343 -317.2039 L-2772.2593 -313.8289 L-2777.8843 -317.2039 Z" clip-path="url(#clipPath2)" stroke="none"/>
      <path fill="none" d="M-2772.2593 -131.8117 L-2772.2593 -97.206" clip-path="url(#clipPath2)"/>
      <path d="M-2772.2593 -88.206 L-2766.6343 -101.706 L-2772.2593 -98.331 L-2777.8843 -101.706 Z" clip-path="url(#clipPath2)" stroke="none"/>
      <path fill="none" d="M-2863.7966 -259.4152 L-3124.478 -259.4152 L-3182.144 -259.4152 L-3182.144 -206.5524" clip-path="url(#clipPath2)"/>
      <path d="M-3182.144 -197.5524 L-3176.519 -211.0524 L-3182.144 -207.6774 L-3187.769 -211.0524 Z" clip-path="url(#clipPath2)" stroke="none"/>
      <text x="-2871.228" y="-279.2609" clip-path="url(#clipPath2)" font-family="'Droid Sans'" stroke="none" font-weight="bold" stroke-width="1" xml:space="preserve">NO</text>
      <path fill="none" d="M-2685.1416 -49.6547 L-2555.9304 -49.6547 L-2555.9304 -122.8117" clip-path="url(#clipPath2)"/>
      <path d="M-2555.9304 -131.8117 L-2561.5554 -118.3117 L-2555.9304 -121.6867 L-2550.3054 -118.3117 Z" clip-path="url(#clipPath2)" stroke="none"/>
      <text x="-2678.1619" y="-57.9005" clip-path="url(#clipPath2)" font-family="'Droid Sans'" stroke="none" font-weight="bold" stroke-width="1" xml:space="preserve">NO</text>
      <path fill="none" d="M-2555.9304 -171.8059 L-2555.9304 -259.4152 L-2671.7581 -259.4152" clip-path="url(#clipPath2)"/>
      <path d="M-2680.7581 -259.4152 L-2667.2581 -253.7902 L-2670.6331 -259.4152 L-2667.2581 -265.0402 Z" clip-path="url(#clipPath2)" stroke="none"/>
      <path fill="none" d="M-2772.2593 -11.0941 L-2772.2593 53.0853" clip-path="url(#clipPath2)"/>
      <path d="M-2772.2593 62.0853 L-2766.6343 48.5853 L-2772.2593 51.9603 L-2777.8843 48.5853 Z" clip-path="url(#clipPath2)" stroke="none"/>
      <text x="-2807.7378" y="7.0439" clip-path="url(#clipPath2)" font-family="'Droid Sans'" stroke="none" font-weight="bold" stroke-width="1" xml:space="preserve">SÍ</text>
      <path fill="none" d="M-2772.2593 139.1781 L-2772.2593 203.3382" clip-path="url(#clipPath2)"/>
      <path d="M-2772.2593 212.3382 L-2766.6343 198.8382 L-2772.2593 202.2132 L-2777.8843 198.8382 Z" clip-path="url(#clipPath2)" stroke="none"/>
      <text x="-2807.7378" y="157.3239" clip-path="url(#clipPath2)" font-family="'Droid Sans'" stroke="none" font-weight="bold" stroke-width="1" xml:space="preserve">SÍ</text>
      <path fill="none" d="M-2857.708 248.3453 L-3044.1025 248.3453 L-3044.1025 -40.072 L-3022.1899 -40.072" clip-path="url(#clipPath2)"/>
      <path d="M-3013.1899 -40.072 L-3026.6899 -45.697 L-3023.3149 -40.072 L-3026.6899 -34.447 Z" clip-path="url(#clipPath2)" stroke="none"/>
      <text x="-2848.5688" y="236.4996" clip-path="url(#clipPath2)" font-family="'Droid Sans'" stroke="none" font-weight="bold" stroke-width="1" xml:space="preserve">SÍ</text>
      <path fill="none" d="M-2911.7561 -49.6547 L-2868.3425 -49.6547" clip-path="url(#clipPath2)"/>
      <path d="M-2859.3425 -49.6547 L-2872.8425 -55.2797 L-2869.4675 -49.6547 L-2872.8425 -44.0297 Z" clip-path="url(#clipPath2)" stroke="none"/>
      <path fill="none" d="M-2772.2593 284.3584 L-2772.2593 318.3236" clip-path="url(#clipPath2)"/>
      <path d="M-2772.2593 327.3236 L-2766.6343 313.8236 L-2772.2593 317.1986 L-2777.8843 313.8236 Z" clip-path="url(#clipPath2)" stroke="none"/>
      <text x="-2811.4937" y="309.9995" clip-path="url(#clipPath2)" font-family="'Droid Sans'" stroke="none" font-weight="bold" stroke-width="1" xml:space="preserve">NO</text>
      <path fill="none" d="M-2847.8235 347.3452 L-3074.6638 347.3452 L-3074.6638 -54.344 L-3030.6638 -54.344 L-3022.167 -54.344" clip-path="url(#clipPath2)"/>
      <path d="M-3013.167 -54.344 L-3026.667 -59.969 L-3023.292 -54.344 L-3026.667 -48.719 Z" clip-path="url(#clipPath2)" stroke="none"/>
      <path fill="none" d="M-2859.3816 100.6253 L-2896.1394 100.6253" clip-path="url(#clipPath2)"/>
      <path d="M-2905.1394 100.6253 L-2891.6394 106.2503 L-2895.0144 100.6253 L-2891.6394 95.0003 Z" clip-path="url(#clipPath2)" stroke="none"/>
      <text x="-2864.5198" y="89.7795" clip-path="url(#clipPath2)" font-family="'Droid Sans'" stroke="none" font-weight="bold" stroke-width="1" xml:space="preserve">NO</text>
      <path fill="none" d="M-2962.4468 74.2455 L-2962.4468 -20.6601" clip-path="url(#clipPath2)"/>
      <path d="M-2962.4468 -29.6601 L-2968.0718 -16.1601 L-2962.4468 -19.5351 L-2956.8218 -16.1601 Z" clip-path="url(#clipPath2)" stroke="none"/>
      <path fill="none" d="M-3182.144 -157.4924 L-3182.144 -119.8349" clip-path="url(#clipPath2)"/>
      <path d="M-3182.144 -110.8349 L-3176.519 -124.3349 L-3182.144 -120.9599 L-3187.769 -124.3349 Z" clip-path="url(#clipPath2)" stroke="none"/>
    </g>
  </g>
</svg>
